<?xml version="1.0" encoding="UTF-8"?>
<svg xmlns="http://www.w3.org/2000/svg" xmlns:xlink="http://www.w3.org/1999/xlink" version="1.1" id="Capa_1" x="0px" y="0px" viewBox="0 0 512 512" style="enable-background:new 0 0 512 512;" xml:space="preserve" width="512" height="512">
<g>
	<g>
		<g id="XMLID_403_">
			<path style="fill:#E2C4FF;" d="M315.823,201.586L256,170.136l-59.823,31.45l11.425-66.614l-48.396-47.176l66.884-9.719L256,17.47&#10;&#9;&#9;&#9;&#9;l29.911,60.607l66.884,9.719l-48.396,47.176L315.823,201.586z"/>
		</g>
		<path style="fill:#E2C4FF;" d="M284.309,337.419c-18.493-4.661-38.033-4.672-56.548-0.017l13.178,36.675l-10.042,80.331&#10;&#9;&#9;&#9;L256,484.53l25.102-30.122l-10.042-80.331L284.309,337.419z"/>
	</g>
	<g>
		
			<ellipse id="XMLID_419_" transform="matrix(0.9239 -0.3827 0.3827 0.9239 -87.1646 119.1812)" style="fill:none;stroke:#020288;stroke-width:20;stroke-linecap:round;stroke-linejoin:round;stroke-miterlimit:10;" cx="256" cy="278.694" rx="55.225" ry="55.224"/>
		
			<path id="XMLID_414_" style="fill:none;stroke:#020288;stroke-width:20;stroke-linecap:round;stroke-linejoin:round;stroke-miterlimit:10;" d="&#10;&#9;&#9;&#9;M371.469,484.53H502v-29.028c0-52.684-42.704-95.388-95.388-95.388c-21.959,0-42.171,7.41-58.297,19.891"/>
		
			<ellipse id="XMLID_407_" transform="matrix(0.7071 -0.7071 0.7071 0.7071 -103.285 379.6306)" style="fill:none;stroke:#020288;stroke-width:20;stroke-linecap:round;stroke-linejoin:round;stroke-miterlimit:10;" cx="406.612" cy="314.491" rx="45.62" ry="45.62"/>
		
			<path id="XMLID_405_" style="fill:none;stroke:#020288;stroke-width:20;stroke-linecap:round;stroke-linejoin:round;stroke-miterlimit:10;" d="&#10;&#9;&#9;&#9;M140.531,484.53H10v-29.028c0-52.684,42.704-95.388,95.388-95.388c21.959,0,42.171,7.41,58.297,19.891"/>
		
			<ellipse id="XMLID_404_" transform="matrix(0.2298 -0.9732 0.9732 0.2298 -224.9037 344.8047)" style="fill:none;stroke:#020288;stroke-width:20;stroke-linecap:round;stroke-linejoin:round;stroke-miterlimit:10;" cx="105.388" cy="314.491" rx="45.62" ry="45.62"/>
		
			<line id="XMLID_400_" style="fill:none;stroke:#020288;stroke-width:20;stroke-linecap:round;stroke-linejoin:round;stroke-miterlimit:10;" x1="190.735" y1="458.094" x2="190.735" y2="484.53"/>
		
			<line id="XMLID_399_" style="fill:none;stroke:#020288;stroke-width:20;stroke-linecap:round;stroke-linejoin:round;stroke-miterlimit:10;" x1="60.204" y1="458.094" x2="60.204" y2="484.53"/>
		
			<line id="XMLID_396_" style="fill:none;stroke:#020288;stroke-width:20;stroke-linecap:round;stroke-linejoin:round;stroke-miterlimit:10;" x1="321.265" y1="458.094" x2="321.265" y2="484.53"/>
		
			<line id="XMLID_395_" style="fill:none;stroke:#020288;stroke-width:20;stroke-linecap:round;stroke-linejoin:round;stroke-miterlimit:10;" x1="451.796" y1="458.094" x2="451.796" y2="484.53"/>
		
			<path id="XMLID_420_" style="fill:none;stroke:#020288;stroke-width:20;stroke-linecap:round;stroke-linejoin:round;stroke-miterlimit:10;" d="&#10;&#9;&#9;&#9;M256,333.918L256,333.918c-63.772,0-115.469,51.697-115.469,115.469v35.143h230.939v-35.143&#10;&#9;&#9;&#9;C371.469,385.615,319.772,333.918,256,333.918z"/>
	</g>
</g>















</svg>
