<svg version="1.1" id="Layer_1" xmlns="http://www.w3.org/2000/svg" xmlns:xlink="http://www.w3.org/1999/xlink" x="0px" y="0px" viewBox="0 0 512 512" style="enable-background:new 0 0 512 512;" xml:space="preserve">
<g>
	<g>
		<path style="fill:none;stroke:#000000;stroke-width:22;stroke-linejoin:round;stroke-miterlimit:10;" d="M501,11H301v71.92&#10;&#9;&#9;&#9;c10.678-4.007,23.179-1.724,31.769,6.867c11.716,11.716,11.716,30.711,0,42.426c-8.59,8.59-21.091,10.873-31.769,6.867V211h71.92&#10;&#9;&#9;&#9;c-4.007,10.678-1.723,23.179,6.867,31.769c11.716,11.716,30.711,11.716,42.426,0c8.59-8.59,10.873-21.091,6.867-31.769H501V11z"/>
		<path style="fill:none;stroke:#000000;stroke-width:22;stroke-linejoin:round;stroke-miterlimit:10;" d="M183.611,376.186&#10;&#9;&#9;&#9;c-1.541,1.047-3.014,2.235-4.38,3.601c-11.716,11.716-11.716,30.711,0,42.426c8.59,8.59,21.091,10.873,31.769,6.867V501h200V301&#10;&#9;&#9;&#9;h-71.92c4.007,10.678,1.723,23.179-6.867,31.769c-11.716,11.716-30.711,11.716-42.426,0c-1.366-1.366-2.554-2.84-3.601-4.38"/>
		<path style="fill:none;stroke:#33CCCC;stroke-width:22;stroke-linecap:round;stroke-linejoin:round;stroke-miterlimit:10;" d="&#10;&#9;&#9;&#9;M239.298,282.5l-37,37l-19.595-19.595"/>
		<path style="fill:none;stroke:#000000;stroke-width:22;stroke-linejoin:round;stroke-miterlimit:10;" d="M135.814,273.611&#10;&#9;&#9;&#9;c-1.047-1.541-2.235-3.014-3.601-4.38c-11.716-11.716-30.711-11.716-42.426,0c-8.59,8.59-10.873,21.091-6.867,31.769H11v200h200"/>
		<path style="fill:none;stroke:#000000;stroke-width:22;stroke-linejoin:round;stroke-miterlimit:10;" d="M238.389,225.814&#10;&#9;&#9;&#9;c1.541-1.047,3.014-2.235,4.38-3.601c11.716-11.716,11.716-30.711,0-42.426c-8.59-8.59-21.091-10.873-31.769-6.867V101H11v200"/>
		
			<circle style="fill:none;stroke:#33CCCC;stroke-width:22;stroke-linecap:round;stroke-linejoin:round;stroke-miterlimit:10;" cx="211" cy="301" r="80"/>
	</g>
</g>
<g>
</g>
<g>
</g>
<g>
</g>
<g>
</g>
<g>
</g>
<g>
</g>
<g>
</g>
<g>
</g>
<g>
</g>
<g>
</g>
<g>
</g>
<g>
</g>
<g>
</g>
<g>
</g>
<g>
</g>
</svg>